# xmcd
#
# Track frame offsets:
#	150
#	18452
#	39167
#	58000
#	77965
#	100142
#	114160
#	129177
#	148635
#	165337
#	191850
#	203642
#	219517
#	236695
#	255857
#
# Disc length: 3611 seconds
#
# Revision: 0
# Processed by: cddbd v1.5.2PL0 Copyright (c) Steve Scherf et al.
# Submitted via: dBpowerAMP V4.0
#
DISCID=bf0e190f
DTITLE=zeze di camargo e luciano - 15 anos de sucessos
DYEAR=1900
DGENRE=
TTITLE0=Fui Eu 2005
TTITLE1=Nosso amor é ouro 2004
TTITLE2=Sufocado 2003
TTITLE3=A Ferro e Fogo 2002
TTITLE4=Passou da conta 2001
TTITLE5=Da boca pra fora (Ao Vivo) 2000
TTITLE6=Pare! 1999
TTITLE7=Para não pensar em você 1998
TTITLE8=Toma Juízo 1997
TTITLE9=Indiferença 1996 
TTITLE10=Pão de Mel 1995
TTITLE11=Como um anjo 1994
TTITLE12=Saudade Bandida 1993
TTITLE13=Coração está em pedaços 1992
TTITLE14=É o Amor 1991
EXTD=
EXTT0=
EXTT1=
EXTT2=
EXTT3=
EXTT4=
EXTT5=
EXTT6=
EXTT7=
EXTT8=
EXTT9=
EXTT10=
EXTT11=
EXTT12=
EXTT13=
EXTT14=
PLAYORDER=
